<svg xmlns="http://www.w3.org/2000/svg" viewBox="0 0 2400 1500" role="img" aria-labelledby="title desc">
  <title id="title">中国网络安全行业岗位与技术思维导图（2026）</title>
  <desc id="desc">围绕行业驱动、赛道领域、就业岗位、技术栈、职业路径和求职策略的思维导图。</desc>
  <defs>
    <linearGradient id="bg" x1="0" y1="0" x2="1" y2="1">
      <stop offset="0%" stop-color="#f5fbff"/>
      <stop offset="100%" stop-color="#eef7f2"/>
    </linearGradient>
    <linearGradient id="core" x1="0" y1="0" x2="1" y2="1">
      <stop offset="0%" stop-color="#0ea5e9"/>
      <stop offset="100%" stop-color="#16a34a"/>
    </linearGradient>
    <linearGradient id="branch" x1="0" y1="0" x2="1" y2="1">
      <stop offset="0%" stop-color="#e0f2fe"/>
      <stop offset="100%" stop-color="#dcfce7"/>
    </linearGradient>
    <style>
      .line { stroke: #3b5f6d; stroke-width: 3; fill: none; }
      .box { fill: url(#branch); stroke: #93c5fd; stroke-width: 2; rx: 20; }
      .sub { fill: #ffffff; stroke: #cbd5e1; stroke-width: 1.5; rx: 14; }
      .h1 { font: 700 42px "PingFang SC", "Microsoft YaHei", sans-serif; fill: #ffffff; }
      .h2 { font: 700 30px "PingFang SC", "Microsoft YaHei", sans-serif; fill: #0f172a; }
      .h3 { font: 600 23px "PingFang SC", "Microsoft YaHei", sans-serif; fill: #0f172a; }
      .t { font: 500 20px "PingFang SC", "Microsoft YaHei", sans-serif; fill: #334155; }
      .k { font: 600 20px "PingFang SC", "Microsoft YaHei", sans-serif; fill: #0f172a; }
    </style>
  </defs>

  <rect x="20" y="20" width="2360" height="1460" rx="28" fill="url(#bg)"/>

  <path class="line" d="M1200 750 L1200 360"/>
  <path class="line" d="M1200 750 L520 560"/>
  <path class="line" d="M1200 750 L1880 560"/>
  <path class="line" d="M1200 750 L560 1080"/>
  <path class="line" d="M1200 750 L1840 1080"/>
  <path class="line" d="M1200 750 L1200 1240"/>

  <rect x="930" y="610" width="540" height="280" rx="34" fill="url(#core)"/>
  <text x="1200" y="710" text-anchor="middle" class="h1">中国网络安全行业</text>
  <text x="1200" y="770" text-anchor="middle" class="h1">领域 × 岗位 × 技术（2026）</text>

  <rect x="940" y="180" width="520" height="170" class="box"/>
  <text x="1200" y="245" text-anchor="middle" class="h2">行业驱动</text>
  <text x="1200" y="292" text-anchor="middle" class="t">法规升级 · 数字化转型 · AI与供应链风险</text>

  <rect x="160" y="420" width="720" height="280" class="box"/>
  <text x="520" y="485" text-anchor="middle" class="h2">赛道领域</text>
  <rect x="200" y="520" width="205" height="70" class="sub"/>
  <text x="302" y="565" text-anchor="middle" class="k">安全运营/SOC</text>
  <rect x="425" y="520" width="205" height="70" class="sub"/>
  <text x="527" y="565" text-anchor="middle" class="k">攻防渗透/红蓝对抗</text>
  <rect x="650" y="520" width="205" height="70" class="sub"/>
  <text x="752" y="565" text-anchor="middle" class="k">应用与供应链安全</text>
  <rect x="200" y="605" width="205" height="70" class="sub"/>
  <text x="302" y="650" text-anchor="middle" class="k">数据安全与隐私</text>
  <rect x="425" y="605" width="205" height="70" class="sub"/>
  <text x="527" y="650" text-anchor="middle" class="k">云原生与DevSecOps</text>
  <rect x="650" y="605" width="205" height="70" class="sub"/>
  <text x="752" y="650" text-anchor="middle" class="k">工控/车联网/物联网</text>

  <rect x="1520" y="420" width="720" height="280" class="box"/>
  <text x="1880" y="485" text-anchor="middle" class="h2">就业岗位族群</text>
  <rect x="1560" y="520" width="205" height="70" class="sub"/>
  <text x="1662" y="565" text-anchor="middle" class="k">SOC分析师</text>
  <rect x="1785" y="520" width="205" height="70" class="sub"/>
  <text x="1887" y="565" text-anchor="middle" class="k">渗透测试工程师</text>
  <rect x="2010" y="520" width="205" height="70" class="sub"/>
  <text x="2112" y="565" text-anchor="middle" class="k">应急响应工程师</text>
  <rect x="1560" y="605" width="205" height="70" class="sub"/>
  <text x="1662" y="650" text-anchor="middle" class="k">云安全工程师</text>
  <rect x="1785" y="605" width="205" height="70" class="sub"/>
  <text x="1887" y="650" text-anchor="middle" class="k">数据安全工程师</text>
  <rect x="2010" y="605" width="205" height="70" class="sub"/>
  <text x="2112" y="650" text-anchor="middle" class="k">安全架构/合规</text>

  <rect x="200" y="930" width="760" height="290" class="box"/>
  <text x="580" y="995" text-anchor="middle" class="h2">技术栈</text>
  <rect x="250" y="1030" width="210" height="70" class="sub"/>
  <text x="355" y="1075" text-anchor="middle" class="k">网络协议/TCP-IP</text>
  <rect x="480" y="1030" width="210" height="70" class="sub"/>
  <text x="585" y="1075" text-anchor="middle" class="k">Linux/Windows安全</text>
  <rect x="710" y="1030" width="210" height="70" class="sub"/>
  <text x="815" y="1075" text-anchor="middle" class="k">Python/Go/Shell</text>
  <rect x="250" y="1115" width="210" height="70" class="sub"/>
  <text x="355" y="1160" text-anchor="middle" class="k">SIEM/EDR/SOAR</text>
  <rect x="480" y="1115" width="210" height="70" class="sub"/>
  <text x="585" y="1160" text-anchor="middle" class="k">容器/K8s/云平台</text>
  <rect x="710" y="1115" width="210" height="70" class="sub"/>
  <text x="815" y="1160" text-anchor="middle" class="k">法规与等保合规</text>

  <rect x="1440" y="930" width="760" height="290" class="box"/>
  <text x="1820" y="995" text-anchor="middle" class="h2">职业路径</text>
  <rect x="1490" y="1030" width="210" height="70" class="sub"/>
  <text x="1595" y="1075" text-anchor="middle" class="k">0-1年：实习/初级</text>
  <rect x="1720" y="1030" width="210" height="70" class="sub"/>
  <text x="1825" y="1075" text-anchor="middle" class="k">1-3年：专才成型</text>
  <rect x="1950" y="1030" width="210" height="70" class="sub"/>
  <text x="2055" y="1075" text-anchor="middle" class="k">3-5年：负责人</text>
  <rect x="1490" y="1115" width="210" height="70" class="sub"/>
  <text x="1595" y="1160" text-anchor="middle" class="k">5-8年：架构师</text>
  <rect x="1720" y="1115" width="210" height="70" class="sub"/>
  <text x="1825" y="1160" text-anchor="middle" class="k">8年以上：总监/CISO</text>
  <rect x="1950" y="1115" width="210" height="70" class="sub"/>
  <text x="2055" y="1160" text-anchor="middle" class="k">行业线：咨询/售前</text>

  <rect x="900" y="1240" width="600" height="190" class="box"/>
  <text x="1200" y="1305" text-anchor="middle" class="h2">求职策略</text>
  <text x="1200" y="1350" text-anchor="middle" class="t">先选赛道，再补技术栈；用项目和报告证明能力</text>
  <text x="1200" y="1385" text-anchor="middle" class="t">优先准备：靶场实战 + 检测规则 + 合规落地案例</text>
</svg>
